<svg width="512" height="512" viewBox="0 0 512 512" xmlns="http://www.w3.org/2000/svg">
  <!-- 漢堡上層麵包 -->
  <path fill="#E49A3B" fill-rule="evenodd" d="M412.717,89.012c-35.578-20.985-82.545-32.541-132.246-32.541H239.529c-49.7,0-96.668,11.556-132.246,32.541C69.054,111.56,48,142.453,48,176v16H472V176C472,142.453,450.946,111.56,412.717,89.012Z"/>
  <!-- 芝麻粒（稍大） -->
  <!-- 芝麻粒 -->
  <ellipse cx="120" cy="100" rx="6" ry="3" fill="#FFF4C1"/>
  <ellipse cx="170" cy="90" rx="7" ry="4" fill="#FFF4C1"/>
  <ellipse cx="220" cy="110" rx="6" ry="3" fill="#FFF4C1"/>
  <ellipse cx="260" cy="80" rx="8" ry="4" fill="#FFF4C1"/>
  <ellipse cx="300" cy="105" rx="7" ry="4" fill="#FFF4C1"/>
  <ellipse cx="340" cy="95" rx="6" ry="3" fill="#FFF4C1"/>
  <ellipse cx="380" cy="115" rx="7" ry="4" fill="#FFF4C1"/>
  <ellipse cx="140" cy="120" rx="6" ry="3" fill="#FFF4C1"/>
  <ellipse cx="200" cy="85" rx="7" ry="4" fill="#FFF4C1"/>
  <ellipse cx="280" cy="125" rx="6" ry="3" fill="#FFF4C1"/>
  <ellipse cx="320" cy="100" rx="7" ry="4" fill="#FFF4C1"/>
  <ellipse cx="360" cy="90" rx="6" ry="3" fill="#FFF4C1"/>
  <ellipse cx="240" cy="95" rx="7" ry="4" fill="#FFF4C1"/>
  <ellipse cx="180" cy="115" rx="6" ry="3" fill="#FFF4C1"/>
  <ellipse cx="310" cy="115" rx="7" ry="4" fill="#FFF4C1"/>

  <!-- 黃色起司 -->
  <rect x="60" y="200" width="400" height="16" fill="#FBD760"/>

  <!-- 棕色肉排 -->
  <rect x="48" y="228" width="424" height="32" fill="#471A03"/>

  <!-- 紅色番茄 -->
  <rect x="56" y="272" width="200" height="24" fill="#E12519" rx="4"/>
  <rect x="264" y="272" width="200" height="24" fill="#E12519" rx="4"/>

  <!-- 綠色生菜 -->
  <path fill="#4CB85A" d="M387.2,304.039c-24.785,0-37.77,6.125-49.227,11.529-10.034,4.733-17.96,8.471-35.576,8.471s-25.54-3.738-35.574-8.471c-11.456-5.4-24.441-11.529-49.225-11.529s-37.769,6.125-49.225,11.529c-10.033,4.733-17.957,8.471-35.572,8.471s-25.54-3.738-35.573-8.471c-11.456-5.4-24.441-11.529-49.225-11.529v32c17.615,0,25.54,3.738,35.573,8.471,11.456,5.4,24.441,11.529,49.225,11.529s37.768-6.125,49.224-11.529c10.033-4.733,17.958-8.471,35.573-8.471s25.54,3.738,35.573,8.471c11.457,5.4,24.441,11.529,49.226,11.529s37.77-6.125,49.227-11.529c10.034-4.733,17.959-8.471,35.576-8.471s25.542,3.738,35.576,8.471c11.457,5.4,24.442,11.529,49.227,11.529v-32c-17.617,0-25.542-3.738-35.576-8.471C424.967,310.164,411.982,304.039,387.2,304.039Z"/>

  <!-- 漢堡底層麵包 -->
  <path fill="#E49A3B" d="M48,448a24.028,24.028,0,0,0,24,24H448a24.028,24.028,0,0,0,24-24V368H48Z"/>
</svg>